<svg id="visual" viewBox="0 0 960 300" width="960" height="300" xmlns="http://www.w3.org/2000/svg" xmlns:xlink="http://www.w3.org/1999/xlink" version="1.1"><rect x="0" y="0" width="960" height="300" fill="#141414"></rect><path d="M0 203L22.8 199.7C45.7 196.3 91.3 189.7 137 189C182.7 188.3 228.3 193.7 274 199.8C319.7 206 365.3 213 411.2 213.3C457 213.7 503 207.3 548.8 202.7C594.7 198 640.3 195 686 197.7C731.7 200.3 777.3 208.7 823 210.7C868.7 212.7 914.3 208.3 937.2 206.2L960 204L960 301L937.2 301C914.3 301 868.7 301 823 301C777.3 301 731.7 301 686 301C640.3 301 594.7 301 548.8 301C503 301 457 301 411.2 301C365.3 301 319.7 301 274 301C228.3 301 182.7 301 137 301C91.3 301 45.7 301 22.8 301L0 301Z" fill="#6995fa"></path><path d="M0 230L22.8 226.3C45.7 222.7 91.3 215.3 137 210.7C182.7 206 228.3 204 274 205.2C319.7 206.3 365.3 210.7 411.2 214.5C457 218.3 503 221.7 548.8 218.7C594.7 215.7 640.3 206.3 686 205.8C731.7 205.3 777.3 213.7 823 218.7C868.7 223.7 914.3 225.3 937.2 226.2L960 227L960 301L937.2 301C914.3 301 868.7 301 823 301C777.3 301 731.7 301 686 301C640.3 301 594.7 301 548.8 301C503 301 457 301 411.2 301C365.3 301 319.7 301 274 301C228.3 301 182.7 301 137 301C91.3 301 45.7 301 22.8 301L0 301Z" fill="#557cf1"></path><path d="M0 249L22.8 244.2C45.7 239.3 91.3 229.7 137 228.8C182.7 228 228.3 236 274 241.7C319.7 247.3 365.3 250.7 411.2 249.5C457 248.3 503 242.7 548.8 242.2C594.7 241.7 640.3 246.3 686 248C731.7 249.7 777.3 248.3 823 243.7C868.7 239 914.3 231 937.2 227L960 223L960 301L937.2 301C914.3 301 868.7 301 823 301C777.3 301 731.7 301 686 301C640.3 301 594.7 301 548.8 301C503 301 457 301 411.2 301C365.3 301 319.7 301 274 301C228.3 301 182.7 301 137 301C91.3 301 45.7 301 22.8 301L0 301Z" fill="#4662e5"></path><path d="M0 261L22.8 257.8C45.7 254.7 91.3 248.3 137 245.8C182.7 243.3 228.3 244.7 274 247.7C319.7 250.7 365.3 255.3 411.2 258C457 260.7 503 261.3 548.8 260.8C594.7 260.3 640.3 258.7 686 255.5C731.7 252.3 777.3 247.7 823 249C868.7 250.3 914.3 257.7 937.2 261.3L960 265L960 301L937.2 301C914.3 301 868.7 301 823 301C777.3 301 731.7 301 686 301C640.3 301 594.7 301 548.8 301C503 301 457 301 411.2 301C365.3 301 319.7 301 274 301C228.3 301 182.7 301 137 301C91.3 301 45.7 301 22.8 301L0 301Z" fill="#3e46d7"></path><path d="M0 284L22.8 283C45.7 282 91.3 280 137 277.3C182.7 274.7 228.3 271.3 274 271C319.7 270.7 365.3 273.3 411.2 276.2C457 279 503 282 548.8 280.2C594.7 278.3 640.3 271.7 686 270.3C731.7 269 777.3 273 823 273.5C868.7 274 914.3 271 937.2 269.5L960 268L960 301L937.2 301C914.3 301 868.7 301 823 301C777.3 301 731.7 301 686 301C640.3 301 594.7 301 548.8 301C503 301 457 301 411.2 301C365.3 301 319.7 301 274 301C228.3 301 182.7 301 137 301C91.3 301 45.7 301 22.8 301L0 301Z" fill="#3d24c7"></path></svg>