<svg id="visual" viewBox="0 0 900 600" width="900" height="600" xmlns="http://www.w3.org/2000/svg" xmlns:xlink="http://www.w3.org/1999/xlink" version="1.1"><rect x="0" y="0" width="900" height="600" fill="#141414"></rect><path d="M0 359L21.5 371.3C43 383.7 86 408.3 128.8 410.2C171.7 412 214.3 391 257.2 379.8C300 368.7 343 367.3 385.8 368.5C428.7 369.7 471.3 373.3 514.2 383.5C557 393.7 600 410.3 642.8 408.8C685.7 407.3 728.3 387.7 771.2 385.5C814 383.3 857 398.7 878.5 406.3L900 414L900 601L878.5 601C857 601 814 601 771.2 601C728.3 601 685.7 601 642.8 601C600 601 557 601 514.2 601C471.3 601 428.7 601 385.8 601C343 601 300 601 257.2 601C214.3 601 171.7 601 128.8 601C86 601 43 601 21.5 601L0 601Z" fill="#6995fa"></path><path d="M0 414L21.5 414.7C43 415.3 86 416.7 128.8 425.8C171.7 435 214.3 452 257.2 460.2C300 468.3 343 467.7 385.8 463C428.7 458.3 471.3 449.7 514.2 441.3C557 433 600 425 642.8 428.8C685.7 432.7 728.3 448.3 771.2 452.7C814 457 857 450 878.5 446.5L900 443L900 601L878.5 601C857 601 814 601 771.2 601C728.3 601 685.7 601 642.8 601C600 601 557 601 514.2 601C471.3 601 428.7 601 385.8 601C343 601 300 601 257.2 601C214.3 601 171.7 601 128.8 601C86 601 43 601 21.5 601L0 601Z" fill="#557cf1"></path><path d="M0 452L21.5 461C43 470 86 488 128.8 487.2C171.7 486.3 214.3 466.7 257.2 462.3C300 458 343 469 385.8 479.3C428.7 489.7 471.3 499.3 514.2 493.3C557 487.3 600 465.7 642.8 463.7C685.7 461.7 728.3 479.3 771.2 480.3C814 481.3 857 465.7 878.5 457.8L900 450L900 601L878.5 601C857 601 814 601 771.2 601C728.3 601 685.7 601 642.8 601C600 601 557 601 514.2 601C471.3 601 428.7 601 385.8 601C343 601 300 601 257.2 601C214.3 601 171.7 601 128.8 601C86 601 43 601 21.5 601L0 601Z" fill="#4662e5"></path><path d="M0 496L21.5 497.8C43 499.7 86 503.3 128.8 509.3C171.7 515.3 214.3 523.7 257.2 521.2C300 518.7 343 505.3 385.8 506.2C428.7 507 471.3 522 514.2 530C557 538 600 539 642.8 534.2C685.7 529.3 728.3 518.7 771.2 515.7C814 512.7 857 517.3 878.5 519.7L900 522L900 601L878.5 601C857 601 814 601 771.2 601C728.3 601 685.7 601 642.8 601C600 601 557 601 514.2 601C471.3 601 428.7 601 385.8 601C343 601 300 601 257.2 601C214.3 601 171.7 601 128.8 601C86 601 43 601 21.5 601L0 601Z" fill="#3e46d7"></path><path d="M0 550L21.5 546.3C43 542.7 86 535.3 128.8 532.8C171.7 530.3 214.3 532.7 257.2 534.2C300 535.7 343 536.3 385.8 541.7C428.7 547 471.3 557 514.2 555C557 553 600 539 642.8 533.5C685.7 528 728.3 531 771.2 533C814 535 857 536 878.5 536.5L900 537L900 601L878.5 601C857 601 814 601 771.2 601C728.3 601 685.7 601 642.8 601C600 601 557 601 514.2 601C471.3 601 428.7 601 385.8 601C343 601 300 601 257.2 601C214.3 601 171.7 601 128.8 601C86 601 43 601 21.5 601L0 601Z" fill="#3d24c7"></path></svg>